<svg width="28" height="25" viewBox="0 0 28 25" fill="none" xmlns="http://www.w3.org/2000/svg">
<g id="gridicons:stats">
<path id="Vector" d="M22.1471 3.76074H6.49952C5.90667 3.76074 5.33809 3.97065 4.91888 4.3443C4.49967 4.71794 4.26416 5.22472 4.26416 5.75313V19.6999C4.26416 20.2283 4.49967 20.735 4.91888 21.1087C5.33809 21.4823 5.90667 21.6922 6.49952 21.6922H22.1471C22.7399 21.6922 23.3085 21.4823 23.7277 21.1087C24.1469 20.735 24.3824 20.2283 24.3824 19.6999V5.75313C24.3824 5.22472 24.1469 4.71794 23.7277 4.3443C23.3085 3.97065 22.7399 3.76074 22.1471 3.76074ZM22.1471 19.6999H6.49952V5.75313H22.1471V19.6999ZM10.9702 17.7075H8.73489V12.7265H10.9702V17.7075ZM15.441 17.7075H13.2056V7.74552H15.441V17.7075ZM19.9117 17.7075H17.6763V10.7341H19.9117V17.7075Z" fill="white"/>
</g>
</svg>
